<?xml version="1.0" encoding="iso-8859-1"?>
<!-- Uploaded to: SVG Repo, www.svgrepo.com, Generator: SVG Repo Mixer Tools -->
<svg height="800px" width="800px" version="1.1" id="Layer_1" xmlns="http://www.w3.org/2000/svg" xmlns:xlink="http://www.w3.org/1999/xlink" 
	 viewBox="0 0 512 512" xml:space="preserve">
<path style="fill:#E79D2E;" d="M155.837,311.652c-6.315,0-12.348-3.587-15.174-9.696l-51.62-111.859l-51.62,111.859
	c-3.87,8.348-13.751,12.022-22.163,8.163c-8.37-3.87-12.022-13.783-8.163-22.163L73.88,143.261
	c2.728-5.914,8.652-9.696,15.163-9.696c6.511,0,12.435,3.782,15.163,9.696l66.783,144.696c3.859,8.38,0.207,18.294-8.163,22.163
	C160.554,311.164,158.173,311.652,155.837,311.652z"/>
<path style="fill:#D8842A;" d="M489.75,311.652c-6.315,0-12.348-3.587-15.174-9.696l-51.62-111.859l-51.62,111.859
	c-3.88,8.348-13.751,12.022-22.163,8.163c-8.37-3.87-12.022-13.783-8.163-22.163l66.783-144.696
	c2.728-5.914,8.652-9.696,15.163-9.696c6.511,0,12.435,3.782,15.163,9.696l66.783,144.696c3.859,8.38,0.207,18.294-8.163,22.163
	C494.467,311.164,492.087,311.652,489.75,311.652z"/>
<path style="fill:#EFBE44;" d="M473.043,116.87c0,27.603-22.483,50.087-50.087,50.087h-116.87v261.565
	c0,9.238-7.457,16.696-16.696,16.696h-66.783c-9.238,0-16.696-7.457-16.696-16.696V166.957H89.043
	c-27.603,0-50.087-22.483-50.087-50.087S61.44,66.783,89.043,66.783h116.87V51.979c0-27.715,20.814-50.532,47.416-51.868
	C254.219,0.111,255.11,0,256,0c12.911,0,25.043,4.786,34.504,13.802c9.906,9.35,15.583,22.595,15.583,36.285v16.696h116.87
	C450.56,66.783,473.043,89.266,473.043,116.87z"/>
<path style="fill:#E4A738;" d="M473.043,116.87c0,27.603-22.483,50.087-50.087,50.087h-116.87v261.565
	c0,9.238-7.457,16.696-16.696,16.696H256V0c12.911,0,25.043,4.786,34.504,13.802c9.906,9.35,15.583,22.595,15.583,36.285v16.696
	h116.87C450.56,66.783,473.043,89.266,473.043,116.87z"/>
<path style="fill:#EFBE44;" d="M89.043,378.435c-46.032,0-83.478-37.446-83.478-83.478c0-9.217,7.479-16.696,16.696-16.696h133.565
	c9.217,0,16.696,7.479,16.696,16.696C172.522,340.989,135.076,378.435,89.043,378.435z"/>
<path style="fill:#E4A738;" d="M422.957,378.435c-46.032,0-83.478-37.446-83.478-83.478c0-9.217,7.479-16.696,16.696-16.696h133.565
	c9.217,0,16.696,7.479,16.696,16.696C506.435,340.989,468.989,378.435,422.957,378.435z"/>
<path style="fill:#F6DF5A;" d="M256,166.957c-27.619,0-50.087-22.468-50.087-50.087S228.381,66.783,256,66.783
	s50.087,22.468,50.087,50.087S283.619,166.957,256,166.957z"/>
<path style="fill:#F0CA45;" d="M306.087,116.87c0-27.619-22.468-50.087-50.087-50.087v100.174
	C283.619,166.957,306.087,144.489,306.087,116.87z"/>
<path style="fill:#95673F;" d="M256,100.174c-9.206,0-16.696,7.49-16.696,16.696s7.49,16.696,16.696,16.696
	c9.206,0,16.696-7.49,16.696-16.696S265.206,100.174,256,100.174z"/>
<path style="fill:#875334;" d="M272.696,116.87c0-9.206-7.49-16.696-16.696-16.696v33.391
	C265.206,133.565,272.696,126.076,272.696,116.87z"/>
<path style="fill:#95673F;" d="M422.957,512H89.043c-9.217,0-16.696-7.479-16.696-16.696v-33.391
	c0-27.619,22.468-50.087,50.087-50.087h267.13c27.619,0,50.087,22.468,50.087,50.087v33.391
	C439.652,504.521,432.174,512,422.957,512z"/>
<path style="fill:#875334;" d="M389.565,411.826H256V512h166.957c9.217,0,16.696-7.479,16.696-16.696v-33.391
	C439.652,434.294,417.184,411.826,389.565,411.826z"/>
</svg>